<mxfile host="app.diagrams.net" modified="2023-08-15T05:27:29.340Z" agent="Mozilla/5.0 (Macintosh; Intel Mac OS X 10_15_7) AppleWebKit/537.36 (KHTML, like Gecko) Chrome/115.0.0.0 Safari/537.36" etag="eJsorVM4foKDOhUFHcUg" version="21.6.6" type="github">
  <diagram id="C5RBs43oDa-KdzZeNtuy" name="Page-1">
    <mxGraphModel dx="2074" dy="1150" grid="1" gridSize="10" guides="1" tooltips="1" connect="1" arrows="1" fold="1" page="1" pageScale="1" pageWidth="827" pageHeight="1169" math="0" shadow="0">
      <root>
        <mxCell id="WIyWlLk6GJQsqaUBKTNV-0" />
        <mxCell id="WIyWlLk6GJQsqaUBKTNV-1" parent="WIyWlLk6GJQsqaUBKTNV-0" />
        <mxCell id="xgGBC03-rgNvb6MldvB0-203" value="资源分类流程" style="whiteSpace=wrap;strokeWidth=2;" vertex="1" parent="WIyWlLk6GJQsqaUBKTNV-1">
          <mxGeometry x="718" y="20" width="111" height="34" as="geometry" />
        </mxCell>
        <mxCell id="xgGBC03-rgNvb6MldvB0-204" value="公司工厂资源,按场景分文件夹" style="whiteSpace=wrap;strokeWidth=2;" vertex="1" parent="WIyWlLk6GJQsqaUBKTNV-1">
          <mxGeometry x="496" y="104" width="111" height="34" as="geometry" />
        </mxCell>
        <mxCell id="xgGBC03-rgNvb6MldvB0-205" value="商品资源" style="whiteSpace=wrap;strokeWidth=2;" vertex="1" parent="WIyWlLk6GJQsqaUBKTNV-1">
          <mxGeometry x="141" y="104" width="79" height="34" as="geometry" />
        </mxCell>
        <mxCell id="xgGBC03-rgNvb6MldvB0-206" value="按商品分文件夹" style="whiteSpace=wrap;strokeWidth=2;" vertex="1" parent="WIyWlLk6GJQsqaUBKTNV-1">
          <mxGeometry x="117" y="188" width="127" height="34" as="geometry" />
        </mxCell>
        <mxCell id="xgGBC03-rgNvb6MldvB0-207" value="设计通用素材或同行参考资源" style="whiteSpace=wrap;strokeWidth=2;" vertex="1" parent="WIyWlLk6GJQsqaUBKTNV-1">
          <mxGeometry x="875" y="104" width="223" height="34" as="geometry" />
        </mxCell>
        <mxCell id="xgGBC03-rgNvb6MldvB0-208" value="其他资源" style="whiteSpace=wrap;strokeWidth=2;" vertex="1" parent="WIyWlLk6GJQsqaUBKTNV-1">
          <mxGeometry x="1196" y="104" width="79" height="34" as="geometry" />
        </mxCell>
        <mxCell id="xgGBC03-rgNvb6MldvB0-209" value="原视频" style="whiteSpace=wrap;strokeWidth=2;" vertex="1" parent="WIyWlLk6GJQsqaUBKTNV-1">
          <mxGeometry x="294" y="188" width="63" height="34" as="geometry" />
        </mxCell>
        <mxCell id="xgGBC03-rgNvb6MldvB0-210" value="原图片" style="whiteSpace=wrap;strokeWidth=2;" vertex="1" parent="WIyWlLk6GJQsqaUBKTNV-1">
          <mxGeometry x="407" y="188" width="63" height="34" as="geometry" />
        </mxCell>
        <mxCell id="xgGBC03-rgNvb6MldvB0-211" value="处理后视频" style="whiteSpace=wrap;strokeWidth=2;" vertex="1" parent="WIyWlLk6GJQsqaUBKTNV-1">
          <mxGeometry x="520" y="188" width="95" height="34" as="geometry" />
        </mxCell>
        <mxCell id="xgGBC03-rgNvb6MldvB0-212" value="处理后图片" style="whiteSpace=wrap;strokeWidth=2;" vertex="1" parent="WIyWlLk6GJQsqaUBKTNV-1">
          <mxGeometry x="665" y="188" width="95" height="34" as="geometry" />
        </mxCell>
        <mxCell id="xgGBC03-rgNvb6MldvB0-213" value="原视频" style="whiteSpace=wrap;strokeWidth=2;" vertex="1" parent="WIyWlLk6GJQsqaUBKTNV-1">
          <mxGeometry x="20" y="272" width="63" height="34" as="geometry" />
        </mxCell>
        <mxCell id="xgGBC03-rgNvb6MldvB0-214" value="原图片" style="whiteSpace=wrap;strokeWidth=2;" vertex="1" parent="WIyWlLk6GJQsqaUBKTNV-1">
          <mxGeometry x="133" y="272" width="63" height="34" as="geometry" />
        </mxCell>
        <mxCell id="xgGBC03-rgNvb6MldvB0-215" value="处理后视频" style="whiteSpace=wrap;strokeWidth=2;" vertex="1" parent="WIyWlLk6GJQsqaUBKTNV-1">
          <mxGeometry x="246" y="272" width="95" height="34" as="geometry" />
        </mxCell>
        <mxCell id="xgGBC03-rgNvb6MldvB0-216" value="处理后图片" style="whiteSpace=wrap;strokeWidth=2;" vertex="1" parent="WIyWlLk6GJQsqaUBKTNV-1">
          <mxGeometry x="391" y="272" width="95" height="34" as="geometry" />
        </mxCell>
        <mxCell id="xgGBC03-rgNvb6MldvB0-217" value="设计通用素材" style="whiteSpace=wrap;strokeWidth=2;" vertex="1" parent="WIyWlLk6GJQsqaUBKTNV-1">
          <mxGeometry x="810" y="188" width="111" height="34" as="geometry" />
        </mxCell>
        <mxCell id="xgGBC03-rgNvb6MldvB0-218" value="同行参考" style="whiteSpace=wrap;strokeWidth=2;" vertex="1" parent="WIyWlLk6GJQsqaUBKTNV-1">
          <mxGeometry x="971" y="188" width="79" height="34" as="geometry" />
        </mxCell>
        <mxCell id="xgGBC03-rgNvb6MldvB0-219" value="ps" style="whiteSpace=wrap;strokeWidth=2;" vertex="1" parent="WIyWlLk6GJQsqaUBKTNV-1">
          <mxGeometry x="1100" y="188" width="30" height="34" as="geometry" />
        </mxCell>
        <mxCell id="xgGBC03-rgNvb6MldvB0-220" value="pr" style="whiteSpace=wrap;strokeWidth=2;" vertex="1" parent="WIyWlLk6GJQsqaUBKTNV-1">
          <mxGeometry x="1180" y="188" width="30" height="34" as="geometry" />
        </mxCell>
        <mxCell id="xgGBC03-rgNvb6MldvB0-221" value="ai" style="whiteSpace=wrap;strokeWidth=2;" vertex="1" parent="WIyWlLk6GJQsqaUBKTNV-1">
          <mxGeometry x="1261" y="188" width="28" height="34" as="geometry" />
        </mxCell>
        <mxCell id="xgGBC03-rgNvb6MldvB0-222" value="" style="curved=1;startArrow=none;endArrow=block;exitX=-0.0045045045045045045;exitY=0.809520647988315;entryX=0.5;entryY=0;rounded=0;" edge="1" parent="WIyWlLk6GJQsqaUBKTNV-1" source="xgGBC03-rgNvb6MldvB0-203" target="xgGBC03-rgNvb6MldvB0-204">
          <mxGeometry relative="1" as="geometry">
            <Array as="points">
              <mxPoint x="552" y="79" />
            </Array>
          </mxGeometry>
        </mxCell>
        <mxCell id="xgGBC03-rgNvb6MldvB0-223" value="" style="curved=1;startArrow=none;endArrow=block;exitX=-0.0045045045045045045;exitY=0.6157149090062924;entryX=0.5002472310126582;entryY=0;rounded=0;" edge="1" parent="WIyWlLk6GJQsqaUBKTNV-1" source="xgGBC03-rgNvb6MldvB0-203" target="xgGBC03-rgNvb6MldvB0-205">
          <mxGeometry relative="1" as="geometry">
            <Array as="points">
              <mxPoint x="181" y="79" />
            </Array>
          </mxGeometry>
        </mxCell>
        <mxCell id="xgGBC03-rgNvb6MldvB0-224" value="" style="curved=1;startArrow=none;endArrow=block;exitX=0.5002472310126582;exitY=1;entryX=0.5001537893700787;entryY=0;rounded=0;" edge="1" parent="WIyWlLk6GJQsqaUBKTNV-1" source="xgGBC03-rgNvb6MldvB0-205" target="xgGBC03-rgNvb6MldvB0-206">
          <mxGeometry relative="1" as="geometry">
            <Array as="points" />
          </mxGeometry>
        </mxCell>
        <mxCell id="xgGBC03-rgNvb6MldvB0-225" value="" style="curved=1;startArrow=none;endArrow=block;exitX=0.9954954954954955;exitY=0.8211186113789778;entryX=0.5;entryY=0;rounded=0;" edge="1" parent="WIyWlLk6GJQsqaUBKTNV-1" source="xgGBC03-rgNvb6MldvB0-203" target="xgGBC03-rgNvb6MldvB0-207">
          <mxGeometry relative="1" as="geometry">
            <Array as="points">
              <mxPoint x="987" y="79" />
            </Array>
          </mxGeometry>
        </mxCell>
        <mxCell id="xgGBC03-rgNvb6MldvB0-226" value="" style="curved=1;startArrow=none;endArrow=block;exitX=0.9954954954954955;exitY=0.6483932125702134;entryX=0.49376977848101267;entryY=0;rounded=0;" edge="1" parent="WIyWlLk6GJQsqaUBKTNV-1" source="xgGBC03-rgNvb6MldvB0-203" target="xgGBC03-rgNvb6MldvB0-208">
          <mxGeometry relative="1" as="geometry">
            <Array as="points">
              <mxPoint x="1235" y="79" />
            </Array>
          </mxGeometry>
        </mxCell>
        <mxCell id="xgGBC03-rgNvb6MldvB0-227" value="" style="curved=1;startArrow=none;endArrow=block;exitX=0;exitY=0.8033838451112241;entryX=0.5003100198412699;entryY=0;rounded=0;" edge="1" parent="WIyWlLk6GJQsqaUBKTNV-1" source="xgGBC03-rgNvb6MldvB0-204" target="xgGBC03-rgNvb6MldvB0-209">
          <mxGeometry relative="1" as="geometry">
            <Array as="points">
              <mxPoint x="326" y="163" />
            </Array>
          </mxGeometry>
        </mxCell>
        <mxCell id="xgGBC03-rgNvb6MldvB0-228" value="" style="curved=1;startArrow=none;endArrow=block;exitX=0.08801630871943394;exitY=1;entryX=0.5003100198412699;entryY=0;rounded=0;" edge="1" parent="WIyWlLk6GJQsqaUBKTNV-1" source="xgGBC03-rgNvb6MldvB0-204" target="xgGBC03-rgNvb6MldvB0-210">
          <mxGeometry relative="1" as="geometry">
            <Array as="points">
              <mxPoint x="439" y="163" />
            </Array>
          </mxGeometry>
        </mxCell>
        <mxCell id="xgGBC03-rgNvb6MldvB0-229" value="" style="curved=1;startArrow=none;endArrow=block;exitX=0.5584152791184044;exitY=1;entryX=0.5002055921052632;entryY=0;rounded=0;" edge="1" parent="WIyWlLk6GJQsqaUBKTNV-1" source="xgGBC03-rgNvb6MldvB0-204" target="xgGBC03-rgNvb6MldvB0-211">
          <mxGeometry relative="1" as="geometry">
            <Array as="points">
              <mxPoint x="568" y="163" />
            </Array>
          </mxGeometry>
        </mxCell>
        <mxCell id="xgGBC03-rgNvb6MldvB0-230" value="" style="curved=1;startArrow=none;endArrow=block;exitX=1;exitY=0.9257795498296844;entryX=0.5002055921052632;entryY=0;rounded=0;" edge="1" parent="WIyWlLk6GJQsqaUBKTNV-1" source="xgGBC03-rgNvb6MldvB0-204" target="xgGBC03-rgNvb6MldvB0-212">
          <mxGeometry relative="1" as="geometry">
            <Array as="points">
              <mxPoint x="713" y="163" />
            </Array>
          </mxGeometry>
        </mxCell>
        <mxCell id="xgGBC03-rgNvb6MldvB0-231" value="" style="curved=1;startArrow=none;endArrow=block;exitX=0.0889554333052118;exitY=1;entryX=0.5;entryY=0;rounded=0;" edge="1" parent="WIyWlLk6GJQsqaUBKTNV-1" source="xgGBC03-rgNvb6MldvB0-206" target="xgGBC03-rgNvb6MldvB0-213">
          <mxGeometry relative="1" as="geometry">
            <Array as="points">
              <mxPoint x="52" y="247" />
            </Array>
          </mxGeometry>
        </mxCell>
        <mxCell id="xgGBC03-rgNvb6MldvB0-232" value="" style="curved=1;startArrow=none;endArrow=block;exitX=0.4490979154949381;exitY=1;entryX=0.5;entryY=0;rounded=0;" edge="1" parent="WIyWlLk6GJQsqaUBKTNV-1" source="xgGBC03-rgNvb6MldvB0-206" target="xgGBC03-rgNvb6MldvB0-214">
          <mxGeometry relative="1" as="geometry">
            <Array as="points">
              <mxPoint x="165" y="247" />
            </Array>
          </mxGeometry>
        </mxCell>
        <mxCell id="xgGBC03-rgNvb6MldvB0-233" value="" style="curved=1;startArrow=none;endArrow=block;exitX=0.8602340234814398;exitY=1;entryX=0.5;entryY=0;rounded=0;" edge="1" parent="WIyWlLk6GJQsqaUBKTNV-1" source="xgGBC03-rgNvb6MldvB0-206" target="xgGBC03-rgNvb6MldvB0-215">
          <mxGeometry relative="1" as="geometry">
            <Array as="points">
              <mxPoint x="294" y="247" />
            </Array>
          </mxGeometry>
        </mxCell>
        <mxCell id="xgGBC03-rgNvb6MldvB0-234" value="" style="curved=1;startArrow=none;endArrow=block;exitX=1.0001537893700787;exitY=0.8040585857164364;entryX=0.5;entryY=0;rounded=0;" edge="1" parent="WIyWlLk6GJQsqaUBKTNV-1" source="xgGBC03-rgNvb6MldvB0-206" target="xgGBC03-rgNvb6MldvB0-216">
          <mxGeometry relative="1" as="geometry">
            <Array as="points">
              <mxPoint x="439" y="247" />
            </Array>
          </mxGeometry>
        </mxCell>
        <mxCell id="xgGBC03-rgNvb6MldvB0-235" value="" style="curved=1;startArrow=none;endArrow=block;exitX=0.28041127816036737;exitY=1;entryX=0.5001759572072072;entryY=0;rounded=0;" edge="1" parent="WIyWlLk6GJQsqaUBKTNV-1" source="xgGBC03-rgNvb6MldvB0-207" target="xgGBC03-rgNvb6MldvB0-217">
          <mxGeometry relative="1" as="geometry">
            <Array as="points">
              <mxPoint x="866" y="163" />
            </Array>
          </mxGeometry>
        </mxCell>
        <mxCell id="xgGBC03-rgNvb6MldvB0-236" value="" style="curved=1;startArrow=none;endArrow=block;exitX=0.5435972700459106;exitY=1;entryX=0.5002472310126582;entryY=0;rounded=0;" edge="1" parent="WIyWlLk6GJQsqaUBKTNV-1" source="xgGBC03-rgNvb6MldvB0-207" target="xgGBC03-rgNvb6MldvB0-218">
          <mxGeometry relative="1" as="geometry">
            <Array as="points">
              <mxPoint x="1011" y="163" />
            </Array>
          </mxGeometry>
        </mxCell>
        <mxCell id="xgGBC03-rgNvb6MldvB0-237" value="" style="curved=1;startArrow=none;endArrow=block;exitX=-0.006230221518987342;exitY=0.9073203807886998;entryX=0.5071614583333334;entryY=0;rounded=0;" edge="1" parent="WIyWlLk6GJQsqaUBKTNV-1" source="xgGBC03-rgNvb6MldvB0-208" target="xgGBC03-rgNvb6MldvB0-219">
          <mxGeometry relative="1" as="geometry">
            <Array as="points">
              <mxPoint x="1115" y="163" />
            </Array>
          </mxGeometry>
        </mxCell>
        <mxCell id="xgGBC03-rgNvb6MldvB0-238" value="" style="curved=1;startArrow=none;endArrow=block;exitX=0.29124872852621936;exitY=1;entryX=0.516015625;entryY=0;rounded=0;" edge="1" parent="WIyWlLk6GJQsqaUBKTNV-1" source="xgGBC03-rgNvb6MldvB0-208" target="xgGBC03-rgNvb6MldvB0-220">
          <mxGeometry relative="1" as="geometry">
            <Array as="points">
              <mxPoint x="1195" y="163" />
            </Array>
          </mxGeometry>
        </mxCell>
        <mxCell id="xgGBC03-rgNvb6MldvB0-239" value="" style="curved=1;startArrow=none;endArrow=block;exitX=0.6962908284358059;exitY=1;entryX=0.4833984375;entryY=0;rounded=0;" edge="1" parent="WIyWlLk6GJQsqaUBKTNV-1" source="xgGBC03-rgNvb6MldvB0-208" target="xgGBC03-rgNvb6MldvB0-221">
          <mxGeometry relative="1" as="geometry">
            <Array as="points">
              <mxPoint x="1275" y="163" />
            </Array>
          </mxGeometry>
        </mxCell>
      </root>
    </mxGraphModel>
  </diagram>
</mxfile>
